<?xml version="1.0" encoding="UTF-8" standalone="no"?><!DOCTYPE svg PUBLIC "-//W3C//DTD SVG 1.1//EN" "http://www.w3.org/Graphics/SVG/1.1/DTD/svg11.dtd"><svg width="100%" height="100%" viewBox="0 0 270 270" version="1.1" xmlns="http://www.w3.org/2000/svg" xmlns:xlink="http://www.w3.org/1999/xlink" xml:space="preserve" xmlns:serif="http://www.serif.com/" style="fill-rule:evenodd;clip-rule:evenodd;stroke-linecap:round;stroke-linejoin:bevel;stroke-miterlimit:1.5;"><rect id="favicon" x="-0" y="0" width="270" height="270" style="fill:#f36;"/><g><path d="M135,71.624c-34.841,-0 -63.167,28.761 -63.167,64.235c-0,35.474 28.326,64.235 63.167,64.235c34.841,0 63.167,-28.761 63.167,-64.235c0,-35.474 -28.326,-64.235 -63.167,-64.235Zm-0,4.444c32.41,0 58.723,26.791 58.723,59.791c-0,32.999 -26.313,59.791 -58.723,59.791c-32.41,-0 -58.723,-26.792 -58.723,-59.791c0,-33 26.313,-59.791 58.723,-59.791Z" style="fill:#fff;"/><path d="M135,56.676c-42.943,-0 -77.848,35.459 -77.848,79.183c0,43.724 34.905,79.183 77.848,79.183c42.943,-0 77.848,-35.459 77.848,-79.183c-0,-43.724 -34.905,-79.183 -77.848,-79.183Zm-0,4.444c40.512,0 73.403,33.49 73.403,74.739c0,41.249 -32.891,74.739 -73.403,74.739c-40.512,-0 -73.403,-33.49 -73.403,-74.739c-0,-41.249 32.891,-74.739 73.403,-74.739Z" style="fill:#f36;fill-opacity:0.9;"/><path d="M135,56.676c-42.943,-0 -77.848,35.459 -77.848,79.183c0,43.724 34.905,79.183 77.848,79.183c42.943,-0 77.848,-35.459 77.848,-79.183c-0,-43.724 -34.905,-79.183 -77.848,-79.183Zm-0,4.444c40.512,0 73.403,33.49 73.403,74.739c0,41.249 -32.891,74.739 -73.403,74.739c-40.512,-0 -73.403,-33.49 -73.403,-74.739c-0,-41.249 32.891,-74.739 73.403,-74.739Z" style="fill:#fff;fill-opacity:0.9;"/><path d="M135,41.728c-51.046,0 -92.528,42.157 -92.528,94.131c-0,51.974 41.482,94.131 92.528,94.131c51.046,-0 92.528,-42.157 92.528,-94.131c0,-51.974 -41.482,-94.131 -92.528,-94.131Zm-0,4.445c48.615,-0 88.084,40.187 88.084,89.686c-0,49.499 -39.469,89.686 -88.084,89.686c-48.615,0 -88.084,-40.187 -88.084,-89.686c0,-49.499 39.469,-89.686 88.084,-89.686Z" style="fill:#f36;fill-opacity:0.9;"/><path d="M135,41.728c-51.046,0 -92.528,42.157 -92.528,94.131c-0,51.974 41.482,94.131 92.528,94.131c51.046,-0 92.528,-42.157 92.528,-94.131c0,-51.974 -41.482,-94.131 -92.528,-94.131Zm-0,4.445c48.615,-0 88.084,40.187 88.084,89.686c-0,49.499 -39.469,89.686 -88.084,89.686c-48.615,0 -88.084,-40.187 -88.084,-89.686c0,-49.499 39.469,-89.686 88.084,-89.686Z" style="fill:#fff;fill-opacity:0.9;"/><path d="M135,26.781c-59.148,-0 -107.209,48.854 -107.209,109.078c-0,60.224 48.061,109.078 107.209,109.078c59.148,0 107.209,-48.854 107.209,-109.078c0,-60.224 -48.061,-109.078 -107.209,-109.078Zm-0,4.444c56.717,-0 102.765,46.885 102.765,104.634c-0,57.749 -46.048,104.634 -102.765,104.634c-56.717,-0 -102.765,-46.885 -102.765,-104.634c0,-57.749 46.048,-104.634 102.765,-104.634Z" style="fill:#fff;fill-opacity:0.9;"/><path d="M90.936,69.988l-0.003,-0.153l-0,29.896c-0,3.272 2.653,5.926 5.926,5.926l19.501,-0c0,-0 0,22.728 0,22.728c0,2.101 1.112,4.044 2.923,5.109l12.714,7.474c1.854,1.089 4.152,1.089 6.006,-0l12.714,-7.474c1.811,-1.065 2.923,-3.008 2.923,-5.109l-0,-22.638c-0,0 18.77,0.286 18.77,0.286c3.211,0.049 5.876,-2.469 6.011,-5.677l0.641,-15.325l-0.001,0.001l0.006,-0.249l0,-14.828l1.233,-30.504c0.089,-2.193 -1.042,-4.255 -2.938,-5.36l-39.38,-22.935c-1.85,-1.077 -4.139,-1.073 -5.985,0.013l-37.932,22.298c-1.788,1.051 -2.896,2.959 -2.922,5.033l-0.21,16.311c-0,0.026 -0,0.051 -0,0.077l-0,14.947l0.003,0.153Zm5.923,-15.1l-0,44.843l25.427,-0l0,28.654l12.714,7.474l12.714,-7.474l-0,-28.654l24.786,0.377l0.641,-15.325l0,-14.948l1.238,-30.623l-39.379,-22.935l-37.932,22.299l-0.209,16.312Zm-0.305,20.865c0.05,0.003 0.101,0.005 0.151,0.006c0.051,0.002 0.102,0.002 0.154,0.002l-0.305,-0.008Zm-0.598,-0.06l0.157,0.02c-0,-0 -0.157,-0.02 -0.157,-0.02Zm-0.292,-0.052l0.141,0.025c-0,-0 -0.141,-0.025 -0.141,-0.025Zm-0.286,-0.066l0.131,0.03c0,-0 -0.131,-0.03 -0.131,-0.03Zm-0.282,-0.08l0.126,0.035c-0,0 -0.126,-0.035 -0.126,-0.035Zm-0.275,-0.093l0.121,0.041c0,-0 -0.121,-0.041 -0.121,-0.041Zm-0.269,-0.107l0.119,0.047c-0,0 -0.119,-0.047 -0.119,-0.047Zm-0.263,-0.118l0.117,0.053c0,-0 -0.117,-0.053 -0.117,-0.053Zm-1.2,-0.769l0.111,0.087c-0,0 -0.111,-0.087 -0.111,-0.087Zm-0.979,-1.027l0.092,0.116c-0,0 -0.092,-0.116 -0.092,-0.116Zm-0.462,-0.721l0.073,0.127c-0,-0 -0.073,-0.127 -0.073,-0.127Zm-0.356,-0.787l0.052,0.131c-0,0 -0.052,-0.131 -0.052,-0.131Zm-0.239,-0.843l0.031,0.135c0,-0 -0.031,-0.135 -0.031,-0.135Z" style="fill:#fff;"/><path d="M96.859,54.888l-0,44.843l25.427,-0l0,28.654l12.714,7.474l12.714,-7.474l-0,-28.654l24.786,0.377l0.641,-15.325l0,-14.948l1.238,-30.623l-39.379,-22.935l-37.932,22.299l-0.209,16.312Z" style="fill:#f36;"/><path d="M139.505,7.373c-2.781,-1.634 -6.229,-1.634 -9.01,0l-101.71,59.791c-2.716,1.597 -4.384,4.512 -4.384,7.663l-0,119.582c-0,3.151 1.668,6.066 4.384,7.663l101.71,59.791c2.781,1.634 6.229,1.634 9.01,-0l100.797,-59.255c2.696,-1.584 4.361,-4.468 4.384,-7.595l0.913,-120.118c0.024,-3.175 -1.647,-6.122 -4.384,-7.731l-101.71,-59.791Zm-4.505,7.663l-101.711,59.791l0,119.582l101.711,59.791l100.798,-59.255l0.913,-120.118l-101.711,-59.791Z" style="fill:#fff;"/><path d="M135,139.591l-0,93.428" style="fill:none;stroke:#fff;stroke-width:5.91px;"/><path d="M135,153.015l25.428,29.895l-25.428,57.583l-25.428,-57.583l25.428,-29.895Z" style="fill:#fff;stroke:#fff;stroke-width:5.93px;stroke-linejoin:round;"/></g></svg>