<?xml version="1.0" encoding="UTF-8" standalone="no"?>
<!DOCTYPE svg PUBLIC "-//W3C//DTD SVG 1.1//EN" "http://www.w3.org/Graphics/SVG/1.1/DTD/svg11.dtd">
<svg width="100%" height="100%" viewBox="0 0 286 101" version="1.1" xmlns="http://www.w3.org/2000/svg" xmlns:xlink="http://www.w3.org/1999/xlink" xml:space="preserve" xmlns:serif="http://www.serif.com/" style="fill-rule:evenodd;clip-rule:evenodd;stroke-linejoin:round;stroke-miterlimit:2;">
    <g transform="matrix(1,0,0,1,-409,-1100)">
        <g id="full_logo_nav_updated" transform="matrix(3.12375,0,0,1.34185,-2325.16,-179.521)">
            <rect x="875.531" y="953.954" width="91.306" height="74.524" style="fill:none;"/>
            <g id="logo_sym_type_white_h100px" transform="matrix(0.160064,0,0,0.37262,682.332,842.168)">
                <g transform="matrix(6.7498,0,0,6.7498,-11259.5,-10016.7)">
                    <path d="M1875.08,1547.68L1875.08,1539.04L1880.54,1539.04L1880.54,1540.6L1876.88,1540.6L1876.88,1542.48L1880.12,1542.48L1880.12,1544.04L1876.88,1544.04L1876.88,1546.12L1880.54,1546.12L1880.54,1547.68L1875.08,1547.68Z" style="fill:white;fill-rule:nonzero;stroke:white;stroke-width:0.15px;"/>
                    <path d="M1881.74,1541.08L1883.48,1541.08L1883.48,1539.04L1885.28,1539.04L1885.28,1541.08L1887.74,1541.08L1887.74,1542.7L1885.28,1542.7L1885.28,1545.4C1885.28,1545.61 1885.34,1545.77 1885.45,1545.89C1885.57,1546.01 1885.73,1546.06 1885.94,1546.06L1887.62,1546.06L1887.62,1547.68L1885.76,1547.68C1885.05,1547.68 1884.49,1547.48 1884.09,1547.08C1883.68,1546.67 1883.48,1546.12 1883.48,1545.4L1883.48,1542.7L1881.74,1542.7L1881.74,1541.08Z" style="fill:white;fill-rule:nonzero;stroke:white;stroke-width:0.15px;"/>
                    <path d="M1889.25,1538.92L1891.05,1538.92L1891.05,1541.08C1891.05,1541.2 1891.05,1541.33 1891.03,1541.47C1891.02,1541.6 1891.01,1541.73 1890.99,1541.84C1890.98,1541.95 1890.96,1542.04 1890.95,1542.12C1890.95,1542.19 1890.94,1542.22 1890.94,1542.22L1891.08,1542.22C1891.13,1541.82 1891.31,1541.51 1891.6,1541.29C1891.9,1541.07 1892.29,1540.96 1892.77,1540.96C1893.44,1540.96 1893.97,1541.18 1894.36,1541.62C1894.75,1542.06 1894.94,1542.66 1894.94,1543.42L1894.94,1547.68L1893.14,1547.68L1893.14,1543.6C1893.14,1543.27 1893.05,1543 1892.86,1542.81C1892.67,1542.62 1892.41,1542.52 1892.1,1542.52C1891.78,1542.52 1891.52,1542.62 1891.33,1542.81C1891.14,1543 1891.05,1543.27 1891.05,1543.6L1891.05,1547.68L1889.25,1547.68L1889.25,1538.92Z" style="fill:white;fill-rule:nonzero;stroke:white;stroke-width:0.15px;"/>
                    <path d="M1899.32,1547.8C1898.86,1547.8 1898.45,1547.74 1898.08,1547.61C1897.7,1547.48 1897.39,1547.31 1897.12,1547.08C1896.86,1546.85 1896.65,1546.57 1896.51,1546.24C1896.37,1545.92 1896.3,1545.56 1896.3,1545.16L1896.3,1543.59C1896.3,1543.19 1896.37,1542.83 1896.51,1542.51C1896.65,1542.19 1896.86,1541.92 1897.12,1541.68C1897.39,1541.45 1897.7,1541.27 1898.08,1541.15C1898.45,1541.03 1898.86,1540.96 1899.32,1540.96C1899.77,1540.96 1900.17,1541.03 1900.54,1541.16C1900.91,1541.28 1901.23,1541.46 1901.49,1541.7C1901.76,1541.93 1901.96,1542.21 1902.1,1542.53C1902.25,1542.85 1902.32,1543.21 1902.32,1543.6L1902.32,1544.8L1898.07,1544.8L1898.07,1545.16C1898.07,1545.56 1898.18,1545.87 1898.39,1546.09C1898.61,1546.31 1898.92,1546.42 1899.32,1546.42C1899.62,1546.42 1899.87,1546.38 1900.08,1546.28C1900.28,1546.18 1900.42,1546.05 1900.5,1545.88L1902.26,1545.88C1902.19,1546.17 1902.06,1546.43 1901.88,1546.67C1901.7,1546.91 1901.48,1547.11 1901.23,1547.28C1900.97,1547.44 1900.68,1547.57 1900.36,1547.67C1900.03,1547.76 1899.69,1547.8 1899.32,1547.8ZM1900.58,1543.72L1900.58,1543.6C1900.58,1543.2 1900.47,1542.89 1900.25,1542.67C1900.03,1542.45 1899.72,1542.34 1899.32,1542.34C1898.93,1542.34 1898.62,1542.45 1898.4,1542.67C1898.18,1542.89 1898.07,1543.2 1898.07,1543.59L1898.07,1543.72L1900.58,1543.72Z" style="fill:white;fill-rule:nonzero;stroke:white;stroke-width:0.15px;"/>
                    <path d="M1903.65,1547.68L1903.65,1541.08L1905.36,1541.08L1905.36,1542.22L1905.48,1542.22C1905.53,1541.82 1905.71,1541.51 1906,1541.29C1906.3,1541.07 1906.69,1540.96 1907.17,1540.96C1907.84,1540.96 1908.37,1541.18 1908.76,1541.62C1909.14,1542.06 1909.34,1542.66 1909.34,1543.42L1909.34,1547.68L1907.54,1547.68L1907.54,1543.6C1907.54,1543.27 1907.44,1543 1907.26,1542.81C1907.07,1542.62 1906.82,1542.52 1906.5,1542.52C1906.17,1542.52 1905.92,1542.62 1905.73,1542.81C1905.55,1543 1905.45,1543.27 1905.45,1543.6L1905.45,1547.68L1903.65,1547.68Z" style="fill:white;fill-rule:nonzero;stroke:white;stroke-width:0.15px;"/>
                    <path d="M1910.54,1541.08L1912.28,1541.08L1912.28,1539.04L1914.08,1539.04L1914.08,1541.08L1916.54,1541.08L1916.54,1542.7L1914.08,1542.7L1914.08,1545.4C1914.08,1545.61 1914.14,1545.77 1914.25,1545.89C1914.37,1546.01 1914.53,1546.06 1914.74,1546.06L1916.42,1546.06L1916.42,1547.68L1914.56,1547.68C1913.85,1547.68 1913.29,1547.48 1912.88,1547.08C1912.48,1546.67 1912.28,1546.12 1912.28,1545.4L1912.28,1542.7L1910.54,1542.7L1910.54,1541.08Z" style="fill:white;fill-rule:nonzero;stroke:white;stroke-width:0.15px;"/>
                    <path d="M1918.22,1546.05L1920.56,1546.05L1920.56,1542.7L1918.52,1542.7L1918.52,1541.08L1922.24,1541.08L1922.24,1546.05L1924.1,1546.05L1924.1,1547.68L1918.22,1547.68L1918.22,1546.05ZM1920.2,1539.34C1920.2,1539.09 1920.28,1538.88 1920.44,1538.73C1920.61,1538.58 1920.83,1538.5 1921.1,1538.5L1921.46,1538.5C1921.73,1538.5 1921.95,1538.58 1922.11,1538.73C1922.28,1538.88 1922.36,1539.09 1922.36,1539.34C1922.36,1539.6 1922.28,1539.8 1922.11,1539.96C1921.95,1540.11 1921.73,1540.18 1921.45,1540.18L1921.1,1540.18C1920.83,1540.18 1920.61,1540.11 1920.44,1539.96C1920.28,1539.8 1920.2,1539.6 1920.2,1539.34Z" style="fill:white;fill-rule:nonzero;stroke:white;stroke-width:0.15px;"/>
                    <path d="M1928.18,1547.8C1927.72,1547.8 1927.31,1547.74 1926.94,1547.62C1926.57,1547.5 1926.25,1547.33 1925.98,1547.11C1925.72,1546.88 1925.52,1546.61 1925.37,1546.3C1925.23,1545.98 1925.15,1545.63 1925.15,1545.24L1925.15,1543.54C1925.15,1543.15 1925.23,1542.8 1925.37,1542.48C1925.52,1542.17 1925.72,1541.9 1925.98,1541.67C1926.25,1541.45 1926.57,1541.27 1926.94,1541.15C1927.31,1541.03 1927.72,1540.96 1928.18,1540.96C1928.58,1540.96 1928.95,1541.02 1929.3,1541.13C1929.64,1541.24 1929.94,1541.4 1930.21,1541.61C1930.47,1541.82 1930.69,1542.07 1930.87,1542.37C1931.04,1542.66 1931.16,1543 1931.23,1543.36L1929.43,1543.36C1929.37,1543.11 1929.23,1542.9 1929.01,1542.75C1928.78,1542.6 1928.51,1542.52 1928.18,1542.52C1927.8,1542.52 1927.5,1542.61 1927.28,1542.79C1927.06,1542.97 1926.95,1543.22 1926.95,1543.54L1926.95,1545.24C1926.95,1545.56 1927.06,1545.8 1927.28,1545.98C1927.5,1546.16 1927.8,1546.24 1928.18,1546.24C1928.5,1546.24 1928.77,1546.17 1929,1546.01C1929.22,1545.85 1929.36,1545.65 1929.43,1545.39L1931.23,1545.39C1931.16,1545.76 1931.04,1546.09 1930.87,1546.39C1930.69,1546.68 1930.47,1546.94 1930.21,1547.15C1929.94,1547.36 1929.64,1547.52 1929.3,1547.64C1928.95,1547.75 1928.58,1547.8 1928.18,1547.8Z" style="fill:white;fill-rule:nonzero;stroke:white;stroke-width:0.15px;"/>
                </g>
                <g transform="matrix(1.14223,0,0,1.14223,-466.693,-118.109)">
                    <g id="Logo_sym_alone_white">
                        <g id="Final">
                            <g transform="matrix(4.01413,0,0,4.01413,-1104.98,-769.999)">
                                <path d="M659.484,294.253C653.572,294.253 648.772,299.053 648.772,304.965C648.772,310.877 653.572,315.677 659.484,315.677C665.396,315.677 670.196,310.877 670.196,304.965C670.196,299.053 665.396,294.253 659.484,294.253ZM659.484,295C664.984,295 669.449,299.465 669.449,304.965C669.449,310.465 664.984,314.93 659.484,314.93C653.984,314.93 649.519,310.465 649.519,304.965C649.519,299.465 653.984,295 659.484,295Z" style="fill:white;"/>
                            </g>
                            <g transform="matrix(5.01767,0,0,5.01767,-1766.79,-1076.04)">
                                <path d="M659.484,294.402C653.654,294.402 648.921,299.135 648.921,304.965C648.921,310.794 653.654,315.527 659.484,315.527C665.314,315.527 670.047,310.794 670.047,304.965C670.047,299.135 665.314,294.402 659.484,294.402ZM659.484,295C664.984,295 669.449,299.465 669.449,304.965C669.449,310.465 664.984,314.93 659.484,314.93C653.984,314.93 649.519,310.465 649.519,304.965C649.519,299.465 653.984,295 659.484,295Z" style="fill:white;fill-opacity:0.9;"/>
                            </g>
                            <g transform="matrix(5.01767,0,0,5.01767,-1766.79,-1076.04)">
                                <path d="M659.484,294.402C653.654,294.402 648.921,299.135 648.921,304.965C648.921,310.794 653.654,315.527 659.484,315.527C665.314,315.527 670.047,310.794 670.047,304.965C670.047,299.135 665.314,294.402 659.484,294.402ZM659.484,295C664.984,295 669.449,299.465 669.449,304.965C669.449,310.465 664.984,314.93 659.484,314.93C653.984,314.93 649.519,310.465 649.519,304.965C649.519,299.465 653.984,295 659.484,295Z" style="fill:white;fill-opacity:0.9;"/>
                            </g>
                            <g transform="matrix(6.0212,0,0,6.0212,-2428.61,-1382.08)">
                                <path d="M659.484,294.502C653.709,294.502 649.021,299.19 649.021,304.965C649.021,310.739 653.709,315.428 659.484,315.428C665.259,315.428 669.947,310.739 669.947,304.965C669.947,299.19 665.259,294.502 659.484,294.502ZM659.484,295C664.984,295 669.449,299.465 669.449,304.965C669.449,310.465 664.984,314.93 659.484,314.93C653.984,314.93 649.519,310.465 649.519,304.965C649.519,299.465 653.984,295 659.484,295Z" style="fill:white;fill-opacity:0.9;"/>
                            </g>
                            <g transform="matrix(6.0212,0,0,6.0212,-2428.61,-1382.08)">
                                <path d="M659.484,294.502C653.709,294.502 649.021,299.19 649.021,304.965C649.021,310.739 653.709,315.428 659.484,315.428C665.259,315.428 669.947,310.739 669.947,304.965C669.947,299.19 665.259,294.502 659.484,294.502ZM659.484,295C664.984,295 669.449,299.465 669.449,304.965C669.449,310.465 664.984,314.93 659.484,314.93C653.984,314.93 649.519,310.465 649.519,304.965C649.519,299.465 653.984,295 659.484,295Z" style="fill:white;fill-opacity:0.9;"/>
                            </g>
                            <g transform="matrix(7.02473,0,0,7.02473,-3090.42,-1688.13)">
                                <path d="M659.484,294.573C653.748,294.573 649.092,299.229 649.092,304.965C649.092,310.7 653.748,315.357 659.484,315.357C665.219,315.357 669.876,310.7 669.876,304.965C669.876,299.229 665.219,294.573 659.484,294.573ZM659.484,295C664.984,295 669.449,299.465 669.449,304.965C669.449,310.465 664.984,314.93 659.484,314.93C653.984,314.93 649.519,310.465 649.519,304.965C649.519,299.465 653.984,295 659.484,295Z" style="fill:white;fill-opacity:0.9;"/>
                            </g>
                            <g transform="matrix(1,0,0,1,1031.32,-170)">
                                <path d="M480.974,580L480.974,600C480.974,602.209 482.765,604 484.974,604L498.295,604C498.295,604 498.295,619.17 498.295,619.17C498.295,620.599 499.057,621.919 500.295,622.634L508.955,627.634C510.193,628.348 511.717,628.348 512.955,627.634L521.615,622.634C522.853,621.919 523.615,620.599 523.615,619.17L523.615,604.06C523.615,604.06 536.439,604.252 536.439,604.252C538.605,604.284 540.403,602.587 540.495,600.423L540.932,590.17L536.936,594L540.936,590L540.936,580.082L541.776,559.678C541.837,558.185 541.062,556.783 539.765,556.041L512.941,540.698C511.706,539.991 510.188,539.994 508.955,540.706L483.117,555.623C481.895,556.328 481.136,557.625 481.117,559.035L480.975,569.948L480.974,580ZM484.974,570L484.974,600L502.295,600L502.295,619.17L510.955,624.17L519.615,619.17L519.615,600L536.499,600.252L536.936,590L536.936,580L537.779,559.513L510.955,544.17L485.117,559.087L484.974,570Z" style="fill:white;"/>
                                <path d="M484.974,570L484.974,600L502.295,600L502.295,619.17L510.955,624.17L519.615,619.17L519.615,600L536.499,600.252L536.936,590L536.936,580L537.779,559.513L510.955,544.17L485.117,559.087L484.974,570Z" style="fill:rgb(255,77,121);"/>
                            </g>
                            <g transform="matrix(1,0,0,1,1230.51,143.34)">
                                <path d="M314.769,224.804C312.913,223.732 310.626,223.732 308.769,224.804L239.487,264.804C237.631,265.876 236.487,267.856 236.487,270L236.487,350C236.487,352.144 237.631,354.124 239.487,355.196L308.769,395.196C310.626,396.268 312.913,396.268 314.769,395.196L383.429,355.555C385.271,354.492 386.413,352.532 386.429,350.405L387.051,270.046C387.068,267.886 385.922,265.884 384.051,264.804L314.769,224.804ZM311.769,230L242.487,270L242.487,350L311.769,390L380.429,350.359L381.051,270L311.769,230Z" style="fill:white;"/>
                            </g>
                            <g transform="matrix(1,5.53041e-15,5.53154e-15,0.765984,1031.32,-21.4371)">
                                <path d="M510.955,624.17L510.955,705.768" style="fill:none;stroke:white;stroke-width:4.49px;stroke-linecap:round;stroke-linejoin:bevel;stroke-miterlimit:1.5;"/>
                            </g>
                            <g transform="matrix(1,0,0,1,1031.32,-159.353)">
                                <path d="M510.955,625L528.275,645L510.955,683.523L493.634,645L510.955,625Z" style="fill:white;stroke:white;stroke-width:4px;stroke-linecap:round;stroke-miterlimit:1.5;"/>
                            </g>
                        </g>
                    </g>
                </g>
            </g>
        </g>
    </g>
</svg>
