<?xml version="1.0" encoding="UTF-8"?><svg id="Layer_2" xmlns="http://www.w3.org/2000/svg" viewBox="0 0 1086.49 355.1"><defs><style>.cls-1,.cls-2{fill:#fff;}.cls-2{fill-rule:evenodd;}</style></defs><g id="Layer_1-2"><g><path class="cls-2" d="M299.64,84.33L159.08,1.69h0c-3.84-2.26-8.61-2.26-12.45,0L6.06,84.33c-3.75,2.21-6.06,6.24-6.06,10.59v165.27c0,4.35,2.31,8.38,6.06,10.59l140.57,82.63c3.84,2.26,8.61,2.26,12.45,0l139.31-81.89c3.73-2.19,6.03-6.17,6.06-10.5l1.26-166.01c.03-4.39-2.28-8.46-6.06-10.68Zm-85.89,3.86l.64-15.86c36,21.54,60.19,61.38,60.19,106.94,0,63.6-47.15,116.08-107.78,123.14l6.97-15.79c49.35-9.92,86.66-54.22,86.66-107.35,0-37.42-18.51-70.45-46.69-90.19v-.89Zm-84.92,191.45c-44.41-11-77.43-51.78-77.43-100.37,0-33.74,15.93-63.72,40.54-82.58v11.99h0v7.02c-16.27,16.12-26.4,38.64-26.4,63.57,0,37.6,23.02,69.74,55.47,82.68l7.81,17.69ZM45.26,179.27c0,53.14,37.3,97.43,86.66,107.35l6.97,15.79c-60.62-7.06-107.78-59.54-107.78-123.14,0-45.82,24.48-85.87,60.83-107.32v17.13c-28.18,19.73-46.69,52.77-46.69,90.19ZM213.75,109.02v-12.34c24.62,18.85,40.55,48.84,40.55,82.58,0,48.58-33.02,89.37-77.43,100.37l7.81-17.69c32.45-12.94,55.47-45.08,55.47-82.68,0-25.06-10.24-47.7-26.67-63.84l.27-6.4h0Zm-.88,21.18l.26-6.24c12.98,14.65,20.89,34.04,20.89,55.31,0,32.64-18.62,60.87-45.63,74.3l3.36-7.62c.64-1.44,.39-3.11-.63-4.31l-35.14-41.32c-.36-.43-.81-.77-1.3-1.01v-12.06c.81-.18,1.6-.49,2.33-.92l17.57-10.33c2.5-1.47,4.04-4.16,4.04-7.06v-31.29l25.94,.4c4.44,.07,8.12-3.41,8.31-7.85ZM152.85,14l30.39,17.7c-9.81-2.09-19.98-3.18-30.39-3.18s-20.28,1.07-29.96,3.09l29.96-17.61Zm-52.71,107.62v-54.26l.29-22.52c16.22-6.57,33.91-10.19,52.42-10.19s37.59,3.91,54.33,10.98l.09,.05-1.71,42.32v20.66l-.89,21.18-34.26-.52v39.6l-17.57,10.33-17.57-10.33v-39.6h-35.14v-7.71Zm0,15.9h26.95v31.41c0,2.9,1.54,5.59,4.04,7.06l17.57,10.33c.73,.43,1.52,.74,2.33,.92v12.07c-.49,.24-.94,.58-1.3,1.01l-35.14,41.32c-1.02,1.2-1.26,2.87-.63,4.31l3.36,7.62c-27.01-13.42-45.63-41.66-45.63-74.3,0-20.91,7.65-40.02,20.26-54.58v4.65c0,4.52,3.67,8.19,8.19,8.19ZM12.28,94.92l33.25-19.55c-14.82,15.84-26.29,34.95-33.25,56.15v-36.61Zm0,165.27v-33.18c5.95,18.13,15.2,34.73,27.02,49.06l-27.02-15.88Zm46.33,27.24c-24.51-22.16-41.44-52.81-46.33-87.4v-41.5c6.89-48.75,37.7-89.66,79.91-110.02l-.21,16.36C52.1,86.89,24.97,129.86,24.97,179.27c0,68.02,51.41,123.87,116.77,129.61l6.59,14.92c-13.98-.45-27.46-2.95-40.14-7.23l-49.58-29.14Zm94.23,55.4l-25.6-15.05c8.32,1.48,16.87,2.25,25.6,2.25s17.29-.77,25.6-2.25l-25.6,15.05Zm139.31-81.89l-25.76,15.14c11.16-13.53,20.03-29.08,25.99-46.04l-.23,30.9Zm.42-55.66c-5.79,32.44-22.23,61.13-45.49,82.16l-49.58,29.15c-12.68,4.28-26.16,6.78-40.14,7.23l6.59-14.92c65.36-5.73,116.77-61.58,116.77-129.61,0-49.01-26.69-91.69-66.05-113.88l.65-16c40.4,20.2,70.03,59.37,77.64,106.08l-.38,49.79Zm.57-74.57c-6.99-20.88-18.35-39.7-32.98-55.33l33.25,19.55-.27,35.78Z"/><g><path class="cls-1" d="M338.62,234.17V118.62h71.1v17.65h-51.04v29.69h45.42v17.65h-45.42v32.9h51.04v17.65h-71.1Z"/><path class="cls-1" d="M428.33,145.9h24.39v-27.28h20.06v27.28h33.54v18.14h-33.54v42.85c0,2.78,.83,5,2.49,6.66,1.66,1.66,3.98,2.49,6.98,2.49h22.47v18.13h-23.91c-8.67,0-15.51-2.46-20.54-7.38-5.03-4.92-7.54-11.55-7.54-19.9v-42.85h-24.39v-18.14Z"/><path class="cls-1" d="M528.96,117.01h20.06v28.89c0,1.61-.05,3.29-.16,5.06-.11,1.77-.24,3.4-.4,4.89-.16,1.5-.35,3.27-.56,5.3h1.6c.96-5.35,3.48-9.49,7.54-12.44,4.07-2.94,9.31-4.41,15.73-4.41,8.88,0,15.94,2.89,21.18,8.67,5.24,5.78,7.86,13.59,7.86,23.43v57.78h-20.06v-55.37c0-5.35-1.44-9.55-4.33-12.6s-6.85-4.57-11.88-4.57-9.17,1.58-12.12,4.73c-2.94,3.16-4.41,7.46-4.41,12.92v54.89h-20.06V117.01Z"/><path class="cls-1" d="M661.84,235.77c-5.78,0-11.05-.83-15.81-2.49-4.76-1.66-8.8-3.98-12.12-6.98-3.32-2.99-5.89-6.63-7.7-10.91-1.82-4.28-2.73-9.04-2.73-14.28v-22.31c0-5.24,.91-10,2.73-14.28,1.82-4.28,4.39-7.92,7.7-10.91,3.32-2.99,7.35-5.3,12.12-6.9,4.76-1.6,10.03-2.41,15.81-2.41s11.02,.83,15.73,2.49c4.71,1.66,8.72,3.99,12.04,6.98,3.32,3,5.88,6.63,7.7,10.91,1.82,4.28,2.73,9.04,2.73,14.29v16.05h-56.65v5.78c0,5.88,1.63,10.49,4.9,13.8,3.26,3.32,7.78,4.98,13.56,4.98,4.39,0,8.11-.67,11.15-2.01,3.05-1.34,5.22-3.29,6.5-5.86h19.74c-.96,3.64-2.57,6.96-4.81,9.95-2.25,3-5,5.54-8.27,7.62-3.26,2.09-6.96,3.69-11.07,4.81-4.12,1.12-8.53,1.69-13.24,1.69Zm18.46-54.25v-2.57c0-5.88-1.61-10.46-4.82-13.72-3.21-3.26-7.76-4.89-13.64-4.89s-10.3,1.63-13.56,4.89-4.9,7.78-4.9,13.56v2.73h36.91Z"/><path class="cls-1" d="M721.54,234.17v-88.27h19.1v15.25h1.44c.96-5.35,3.48-9.49,7.54-12.44,4.07-2.94,9.31-4.41,15.73-4.41,8.88,0,15.94,2.89,21.18,8.67,5.24,5.78,7.86,13.59,7.86,23.43v57.78h-20.06v-55.37c0-5.35-1.44-9.55-4.33-12.6s-6.85-4.57-11.88-4.57-9.17,1.58-12.12,4.73c-2.94,3.16-4.41,7.46-4.41,12.92v54.89h-20.06Z"/><path class="cls-1" d="M813.5,145.9h24.39v-27.28h20.06v27.28h33.54v18.14h-33.54v42.85c0,2.78,.83,5,2.49,6.66,1.66,1.66,3.98,2.49,6.98,2.49h22.47v18.13h-23.91c-8.67,0-15.51-2.46-20.54-7.38-5.03-4.92-7.54-11.55-7.54-19.9v-42.85h-24.39v-18.14Z"/><path class="cls-1" d="M915.89,215.87h31.62v-51.84h-27.6v-18.14h46.86v69.97h25.52v18.29h-76.39v-18.29Zm25.84-93.89c0-3.1,1.04-5.64,3.13-7.62,2.09-1.98,4.84-2.97,8.27-2.97h4.17c3.42,0,6.18,.99,8.27,2.97,2.09,1.98,3.13,4.52,3.13,7.62s-1.07,5.78-3.21,7.7c-2.14,1.93-4.92,2.89-8.35,2.89h-4.01c-3.43,0-6.18-.96-8.27-2.89-2.09-1.93-3.13-4.49-3.13-7.7Z"/><path class="cls-1" d="M1047.97,235.77c-5.78,0-11.02-.8-15.73-2.41-4.71-1.6-8.72-3.9-12.04-6.9-3.32-2.99-5.88-6.61-7.7-10.83-1.82-4.23-2.73-8.96-2.73-14.21v-22.63c0-5.24,.91-9.97,2.73-14.2,1.82-4.22,4.39-7.84,7.7-10.83,3.32-2.99,7.33-5.32,12.04-6.98,4.71-1.66,9.95-2.49,15.73-2.49,5.14,0,9.9,.72,14.28,2.17,4.39,1.45,8.24,3.53,11.55,6.26,3.32,2.73,6.07,5.99,8.27,9.79,2.19,3.8,3.66,8.11,4.41,12.92h-20.06c-.75-4.06-2.78-7.36-6.1-9.87-3.32-2.51-7.44-3.77-12.36-3.77-5.67,0-10.11,1.5-13.32,4.49-3.21,3-4.81,7.17-4.81,12.52v22.63c0,5.24,1.58,9.37,4.73,12.36,3.15,3,7.62,4.49,13.4,4.49,4.82,0,8.91-1.26,12.28-3.77,3.37-2.51,5.43-5.8,6.18-9.87h20.06c-.75,4.81-2.22,9.12-4.41,12.92-2.19,3.8-4.98,7.06-8.35,9.79s-7.22,4.81-11.55,6.26c-4.33,1.44-9.07,2.17-14.2,2.17Z"/></g></g></g></svg>