<?xml version="1.0" encoding="UTF-8"?><svg id="Layer_2" xmlns="http://www.w3.org/2000/svg" viewBox="0 0 884.79 1027.76"><defs><style>.cls-1{fill:#f36;fill-rule:evenodd;}</style></defs><g id="Layer_1-2"><path class="cls-1" d="M867.26,244.07L460.42,4.9h0c-11.12-6.54-24.92-6.54-36.04,0L17.54,244.07c-10.86,6.39-17.54,18.05-17.54,30.65v478.33c0,12.6,6.67,24.26,17.54,30.65l406.84,239.16c11.12,6.54,24.92,6.54,36.04,0l403.19-237.02c10.78-6.34,17.44-17.87,17.54-30.38l3.65-480.47c.1-12.7-6.59-24.49-17.54-30.92Zm-248.59,11.16l1.85-45.89c104.2,62.35,174.21,177.66,174.21,309.51,0,184.09-136.47,335.97-311.93,356.41l20.18-45.7c142.85-28.71,250.81-156.92,250.81-310.71,0-108.31-53.56-203.91-135.12-261.03v-2.58Zm-245.78,554.11c-128.54-31.83-224.1-149.88-224.1-290.49,0-97.67,46.11-184.44,117.34-239.01v34.7h0v20.33c-47.1,46.67-76.4,111.84-76.4,183.98,0,108.81,66.63,201.83,160.55,239.29l22.61,51.2Zm-241.88-290.49c0,153.79,107.97,282,250.81,310.71l20.18,45.7c-175.46-20.43-311.94-172.32-311.94-356.41,0-132.63,70.85-248.53,176.07-310.61v49.57c-81.57,57.12-135.12,152.74-135.12,261.05Zm487.64-203.31l.02-1v-34.71c71.23,54.57,117.34,141.35,117.34,239.02,0,140.61-95.56,258.66-224.1,290.49l22.61-51.2c93.92-37.46,160.55-130.48,160.55-239.29,0-72.54-29.63-138.05-77.2-184.78l.78-18.53h0Zm-2.56,61.3l.76-18.06c37.56,42.4,60.45,98.53,60.45,160.07,0,94.46-53.9,176.19-132.07,215.04l9.74-22.05c1.84-4.16,1.13-9.01-1.82-12.48l-101.71-119.58c-1.05-1.24-2.34-2.22-3.77-2.93v-34.91c2.34-.53,4.62-1.41,6.75-2.66l50.86-29.9c7.24-4.26,11.69-12.03,11.69-20.44v-90.55l75.08,1.14c12.84,.2,23.5-9.88,24.04-22.71ZM442.4,40.52l87.96,51.23c-28.4-6.04-57.82-9.21-87.96-9.21s-58.7,3.09-86.71,8.96l86.71-50.97Zm-152.56,311.5V194.96l.83-65.17c46.95-19.02,98.15-29.49,151.73-29.49s108.8,11.32,157.25,31.79l.27,.16-4.95,122.49v59.79l-2.56,61.3-99.14-1.51v114.62l-50.86,29.9-50.86-29.9v-114.62h-101.71v-22.32Zm0,46.02h78v90.91c0,8.4,4.45,16.18,11.69,20.44l50.86,29.9c2.13,1.25,4.4,2.13,6.74,2.66v34.92c-1.42,.71-2.71,1.69-3.76,2.92l-101.71,119.58c-2.95,3.47-3.65,8.31-1.82,12.48l9.74,22.05c-78.16-38.85-132.07-120.59-132.07-215.04,0-60.53,22.15-115.82,58.62-157.96v13.45c0,13.09,10.61,23.7,23.7,23.7ZM35.55,274.72l96.23-56.57c-42.89,45.84-76.08,101.15-96.23,162.52v-105.95Zm0,478.33v-96.02c17.23,52.47,44,100.51,78.2,141.99l-78.2-45.97Zm134.1,78.83c-70.93-64.13-119.95-152.85-134.1-252.97v-120.12c19.95-141.08,109.11-259.52,231.28-318.42l-.61,47.36c-115.44,63.75-193.93,188.14-193.93,331.12,0,196.87,148.8,358.52,337.97,375.12l19.07,43.19c-40.47-1.29-79.47-8.53-116.18-20.92l-143.49-84.35Zm272.74,160.33l-74.11-43.56c24.08,4.28,48.84,6.51,74.11,6.51s50.03-2.24,74.11-6.51l-74.11,43.56Zm403.19-237.02l-74.55,43.82c32.3-39.16,57.96-84.18,75.23-133.25l-.68,89.43Zm1.22-161.1c-16.77,93.9-64.35,176.91-131.67,237.78l-143.5,84.36c-36.71,12.39-75.71,19.63-116.18,20.92l19.07-43.19c189.17-16.59,337.97-178.24,337.97-375.12,0-141.84-77.25-265.39-191.18-329.59l1.87-46.3c116.94,58.48,202.69,171.84,224.71,307.03l-1.1,144.11Zm1.64-215.81c-20.22-60.42-53.11-114.89-95.45-160.13l96.23,56.57-.79,103.56Z"/></g></svg>