<?xml version="1.0" standalone="no"?>
<!DOCTYPE svg PUBLIC "-//W3C//DTD SVG 20010904//EN"
 "http://www.w3.org/TR/2001/REC-SVG-20010904/DTD/svg10.dtd">
<svg version="1.0" xmlns="http://www.w3.org/2000/svg"
 width="700.000000pt" height="700.000000pt" viewBox="0 0 700.000000 700.000000"
 preserveAspectRatio="xMidYMid meet">
<metadata>
Created by potrace 1.14, written by Peter Selinger 2001-2017
</metadata>
<g transform="translate(0.000000,700.000000) scale(0.100000,-0.100000)"
fill="#000000" stroke="none">
<path d="M0 3500 l0 -3500 3500 0 3500 0 0 3500 0 3500 -3500 0 -3500 0 0
-3500z m3576 3327 c66 -25 2689 -1573 2725 -1609 72 -70 68 47 54 -1729 l-12
-1594 -22 -46 c-12 -26 -32 -56 -44 -67 -30 -28 -2663 -1575 -2706 -1590 -59
-21 -113 -15 -183 21 -160 81 -2655 1555 -2689 1589 -74 72 -69 -40 -69 1708
0 1747 -4 1636 68 1707 35 35 2570 1533 2697 1594 65 31 125 37 181 16z"/>
<path d="M3210 6410 c-157 -93 -378 -224 -492 -291 l-208 -122 0 -794 0 -793
330 0 330 0 0 -370 0 -369 161 -96 c88 -52 164 -95 169 -95 4 0 79 42 166 93
l159 94 3 373 2 373 320 -6 c291 -5 320 -4 324 11 3 10 10 262 17 562 6 300
12 561 14 580 1 19 5 123 9 230 l8 195 -224 130 c-123 71 -349 203 -503 293
-154 90 -284 166 -290 167 -5 2 -138 -72 -295 -165z"/>
<path d="M2245 5869 c-256 -142 -438 -282 -645 -495 -360 -371 -599 -822 -711
-1349 -23 -106 -24 -126 -24 -545 0 -419 1 -439 23 -545 103 -482 303 -889
614 -1250 177 -205 186 -212 702 -514 516 -302 513 -300 786 -355 170 -34 420
-59 420 -42 0 2 -26 63 -59 137 l-58 134 -123 17 c-506 71 -992 316 -1355 683
-191 192 -324 378 -450 630 -120 237 -198 482 -236 740 -99 675 84 1363 503
1892 175 221 461 469 686 593 l42 24 0 153 c0 84 -1 153 -3 153 -1 0 -52 -27
-112 -61z"/>
<path d="M4666 5763 c-7 -132 -6 -149 9 -158 480 -287 837 -696 1039 -1190
337 -828 203 -1769 -354 -2476 -84 -107 -262 -287 -370 -373 -336 -268 -744
-446 -1163 -505 l-120 -16 -58 -130 c-32 -72 -58 -133 -58 -137 -2 -21 230 0
414 37 283 57 274 53 791 355 l469 274 110 111 c358 359 621 840 723 1325 18
84 21 150 27 565 6 450 5 475 -15 576 -57 296 -183 618 -344 883 -187 307
-483 622 -765 815 -84 57 -309 191 -322 191 -3 0 -9 -66 -13 -147z"/>
<path d="M2248 5421 c-503 -338 -862 -872 -983 -1466 -44 -213 -58 -518 -34
-733 110 -1019 873 -1849 1867 -2032 67 -13 125 -20 129 -16 6 5 -100 257
-119 282 -4 6 -34 16 -65 23 -262 58 -584 217 -808 401 -94 78 -267 258 -337
351 -558 748 -552 1762 15 2514 77 102 258 283 365 365 l82 63 0 159 c0 87 -2
158 -4 158 -3 0 -51 -31 -108 -69z"/>
<path d="M4650 5388 c0 -52 -3 -122 -6 -154 l-6 -59 83 -64 c109 -84 289 -264
368 -369 246 -326 389 -703 423 -1117 41 -511 -136 -1069 -466 -1464 -85 -102
-253 -263 -347 -333 -214 -160 -479 -286 -719 -343 -41 -9 -80 -23 -86 -29
-17 -18 -128 -275 -121 -282 3 -3 50 1 104 10 1000 170 1781 1010 1892 2038
24 215 10 520 -34 733 -119 586 -472 1117 -966 1455 -127 87 -119 89 -119 -22z"/>
<path d="M1168 5239 l-308 -181 0 -336 c0 -184 2 -333 4 -331 2 2 25 58 51
124 119 303 297 598 498 827 37 43 67 78 65 78 -2 0 -141 -82 -310 -181z"/>
<path d="M5581 5349 c208 -239 378 -519 500 -823 l48 -121 1 146 c0 80 3 227
7 326 l6 179 -304 179 c-167 98 -308 180 -313 183 -6 3 19 -28 55 -69z"/>
<path d="M2243 4931 c-344 -306 -574 -749 -633 -1221 -13 -109 -13 -351 0
-460 83 -668 481 -1232 1075 -1521 119 -58 340 -137 352 -125 3 3 -25 76 -63
162 l-69 156 -108 54 c-192 96 -328 195 -464 337 -238 248 -386 543 -449 892
-26 144 -24 411 4 565 55 302 194 591 396 822 l76 86 0 171 c0 94 -4 171 -8
171 -5 0 -54 -40 -109 -89z"/>
<path d="M4640 4849 l0 -170 76 -87 c337 -388 480 -890 397 -1392 -90 -549
-453 -1020 -963 -1252 l-55 -25 -69 -157 c-38 -86 -66 -159 -62 -163 11 -11
226 65 341 121 399 192 710 504 905 907 130 271 190 537 190 851 0 469 -157
897 -462 1263 -74 89 -270 275 -290 275 -4 0 -8 -77 -8 -171z"/>
<path d="M4628 4439 c-5 -85 -24 -128 -70 -161 -33 -23 -34 -23 -305 -20
l-273 2 0 -318 c0 -316 0 -319 -23 -353 -16 -24 -74 -64 -200 -139 l-177 -105
0 -145 1 -145 320 -375 c176 -206 325 -385 330 -398 9 -22 1 -50 -45 -156 -17
-37 -17 -38 1 -32 45 17 194 118 281 191 265 221 445 523 524 882 18 83 22
130 22 308 0 227 -12 313 -69 491 -53 163 -175 383 -284 513 l-28 34 -5 -74z"/>
<path d="M2304 4433 c-113 -151 -198 -310 -249 -467 -57 -178 -69 -264 -69
-491 0 -178 4 -225 22 -308 85 -382 280 -698 574 -923 66 -51 226 -154 240
-154 4 0 1 17 -8 38 -45 103 -54 132 -45 154 5 13 154 192 330 398 l320 375 1
146 0 146 -177 104 c-127 74 -184 114 -200 138 -23 34 -23 37 -23 352 l0 319
-267 0 c-248 0 -270 1 -309 20 -59 29 -77 61 -84 148 l-5 74 -51 -69z"/>
<path d="M860 2268 l0 -306 243 -142 c133 -79 246 -145 252 -148 5 -3 -1 7
-13 23 -197 259 -340 509 -437 770 -20 55 -39 102 -41 104 -2 2 -4 -133 -4
-301z"/>
<path d="M6076 2415 c-79 -200 -223 -458 -354 -633 -98 -131 -92 -120 -52 -96
19 11 126 73 236 139 l202 118 7 251 c4 138 5 267 3 286 -3 32 -6 27 -42 -65z"/>
<path d="M3030 688 c3 -3 110 -67 238 -142 l232 -137 234 138 c129 76 234 139
233 140 -1 1 -51 -6 -112 -15 -200 -28 -622 -21 -800 14 -16 4 -28 4 -25 2z"/>
</g>
</svg>
